HIERARCHY
ROOT hip
{
  OFFSET 0 0 0
  CHANNELS 6 Xposition Yposition Zposition Zrotation Yrotation Xrotation
  JOINT abdomen
  {
    OFFSET 0 20.6881 -0.73152
    CHANNELS 3 Zrotation Xrotation Yrotation
    JOINT chest
    {
      OFFSET 0 11.7043 -0.48768
      CHANNELS 3 Zrotation Xrotation Yrotation
      JOINT neck
      {
        OFFSET 0 22.1894 -2.19456
        CHANNELS 3 Zrotation Xrotation Yrotation
        JOINT head
        {
          OFFSET -0.24384 7.07133 1.2192
          CHANNELS 3 Zrotation Xrotation Yrotation
          JOINT leftEye
          {
            OFFSET 4.14528 8.04674 8.04672
            CHANNELS 3 Zrotation Xrotation Yrotation
            End Site
            {
              OFFSET 1 0 0
            }
          }
          JOINT rightEye
          {
            OFFSET -3.6576 8.04674 8.04672
            CHANNELS 3 Zrotation Xrotation Yrotation
            End Site
            {
              OFFSET 1 0 0
            }
          }
        }
      }
      JOINT rCollar
      {
        OFFSET -2.68224 19.2634 -4.8768
        CHANNELS 3 Zrotation Xrotation Yrotation
        JOINT rShldr
        {
          OFFSET -8.77824 -1.95073 1.46304
          CHANNELS 3 Zrotation Xrotation Yrotation
          JOINT rForeArm
          {
            OFFSET -28.1742 -1.7115 0.48768
            CHANNELS 3 Zrotation Xrotation Yrotation
            JOINT rHand
            {
              OFFSET -22.5879 0.773209 7.07136
              CHANNELS 3 Zrotation Xrotation Yrotation
              JOINT rThumb1
              {
                OFFSET -1.2192 -0.487915 3.41376
                CHANNELS 3 Zrotation Xrotation Yrotation
                JOINT rThumb2
                {
                  OFFSET -3.37035 -0.52449 3.41376
                  CHANNELS 3 Zrotation Xrotation Yrotation
                  End Site
                  {
                    OFFSET -1.78271 -1.18214 1.43049
                  }
                }
              }
              JOINT rIndex1
              {
                OFFSET -7.75947 0.938293 5.60832
                CHANNELS 3 Zrotation Xrotation Yrotation
                JOINT rIndex2
                {
                  OFFSET -2.54057 -0.884171 1.56538
                  CHANNELS 3 Zrotation Xrotation Yrotation
                  End Site
                  {
                    OFFSET -1.62519 -0.234802 1.16502
                  }
                }
              }
              JOINT rMid1
              {
                OFFSET -8.24714 1.18213 3.41376
                CHANNELS 3 Zrotation Xrotation Yrotation
                JOINT rMid2
                {
                  OFFSET -3.10165 -0.590103 1.0647
                  CHANNELS 3 Zrotation Xrotation Yrotation
                  End Site
                  {
                    OFFSET -2.48547 -0.328903 0.83742
                  }
                }
              }
              JOINT rRing1
              {
                OFFSET -8.82822 0.546677 1.51678
                CHANNELS 3 Zrotation Xrotation Yrotation
                JOINT rRing2
                {
                  OFFSET -2.60934 -0.819778 -0.0198488
                  CHANNELS 3 Zrotation Xrotation Yrotation
                  End Site
                  {
                    OFFSET -2.33842 -0.294052 0.168128
                  }
                }
              }
              JOINT rPinky1
              {
                OFFSET -8.27202 -0.0477905 -0.4584
                CHANNELS 3 Zrotation Xrotation Yrotation
                JOINT rPinky2
                {
                  OFFSET -1.82734 -0.647385 -0.700984
                  CHANNELS 3 Zrotation Xrotation Yrotation
                  End Site
                  {
                    OFFSET -1.69225 -0.51767 -0.607171
                  }
                }
              }
            }
          }
        }
      }
      JOINT lCollar
      {
        OFFSET 2.68224 19.2634 -4.8768
        CHANNELS 3 Zrotation Xrotation Yrotation
        JOINT lShldr
        {
          OFFSET 8.77824 -1.95073 1.46304
          CHANNELS 3 Zrotation Xrotation Yrotation
          JOINT lForeArm
          {
            OFFSET 28.1742 -1.7115 0.48768
            CHANNELS 3 Zrotation Xrotation Yrotation
            JOINT lHand
            {
              OFFSET 22.5879 0.773209 7.07136
              CHANNELS 3 Zrotation Xrotation Yrotation
              JOINT lThumb1
              {
                OFFSET 1.2192 -0.487915 3.41376
                CHANNELS 3 Zrotation Xrotation Yrotation
                JOINT lThumb2
                {
                  OFFSET 3.37035 -0.52449 3.41376
                  CHANNELS 3 Zrotation Xrotation Yrotation
                  End Site
                  {
                    OFFSET 1.78271 -1.18214 1.43049
                  }
                }
              }
              JOINT lIndex1
              {
                OFFSET 7.75947 0.938293 5.60832
                CHANNELS 3 Zrotation Xrotation Yrotation
                JOINT lIndex2
                {
                  OFFSET 2.54057 -0.884171 1.56538
                  CHANNELS 3 Zrotation Xrotation Yrotation
                  End Site
                  {
                    OFFSET 1.62519 -0.234802 1.16502
                  }
                }
              }
              JOINT lMid1
              {
                OFFSET 8.24714 1.18213 3.41376
                CHANNELS 3 Zrotation Xrotation Yrotation
                JOINT lMid2
                {
                  OFFSET 3.10165 -0.590103 1.0647
                  CHANNELS 3 Zrotation Xrotation Yrotation
                  End Site
                  {
                    OFFSET 2.48547 -0.328903 0.83742
                  }
                }
              }
              JOINT lRing1
              {
                OFFSET 8.82822 0.546677 1.51678
                CHANNELS 3 Zrotation Xrotation Yrotation
                JOINT lRing2
                {
                  OFFSET 2.60934 -0.819778 -0.0198488
                  CHANNELS 3 Zrotation Xrotation Yrotation
                  End Site
                  {
                    OFFSET 2.33842 -0.294052 0.168128
                  }
                }
              }
              JOINT lPinky1
              {
                OFFSET 8.27202 -0.0477905 -0.4584
                CHANNELS 3 Zrotation Xrotation Yrotation
                JOINT lPinky2
                {
                  OFFSET 1.82734 -0.647385 -0.700984
                  CHANNELS 3 Zrotation Xrotation Yrotation
                  End Site
                  {
                    OFFSET 1.69225 -0.51767 -0.607171
                  }
                }
              }
            }
          }
        }
      }
    }
  }
  JOINT rButtock
  {
    OFFSET -8.77824 4.35084 1.2192
    CHANNELS 3 Zrotation Xrotation Yrotation
    JOINT rThigh
    {
      OFFSET 0 -1.70687 -2.19456
      CHANNELS 3 Zrotation Xrotation Yrotation
      JOINT rShin
      {
        OFFSET 0 -36.8199 0.73152
        CHANNELS 3 Zrotation Xrotation Yrotation
        JOINT rFoot
        {
          OFFSET 0.73152 -45.1104 -5.12064
          CHANNELS 3 Zrotation Xrotation Yrotation
          End Site
          {
            OFFSET -1.1221 -3.69964 12.103
          }
        }
      }
    }
  }
  JOINT lButtock
  {
    OFFSET 8.77824 4.35084 1.2192
    CHANNELS 3 Zrotation Xrotation Yrotation
    JOINT lThigh
    {
      OFFSET 0 -1.70687 -2.19456
      CHANNELS 3 Zrotation Xrotation Yrotation
      JOINT lShin
      {
        OFFSET 0 -36.8199 0.73152
        CHANNELS 3 Zrotation Xrotation Yrotation
        JOINT lFoot
        {
          OFFSET -0.73152 -45.1104 -5.12064
          CHANNELS 3 Zrotation Xrotation Yrotation
          End Site
          {
            OFFSET 1.1221 -3.69964 12.103
          }
        }
      }
    }
  }
}
MOTION
Frames:	6
Frame Time:	0.00833333
-7.74844 85.1388 126.002 0.0 0.0 0.0 0.410561 -0.00336363 0.0117798 0.113451 -0.00539419 0.0196579 1.69943e-16 7.95139e-16 -4.96962e-17 4.62796e-16 9.54166e-15 -1.47535e-16 -0.0 0.0 0.0 -0.0 0.0 0.0 1.47766e-16 -1.94126e-19 9.93923e-17 3.15969e-15 -4.09993e-16 1.98785e-16 3.07619e-14 -7.15625e-15 0.0 3.0975e-13 1.0138e-14 -1.11319e-13 7.36263e-13 1.3977e-14 -2.29e-13 1.2599e-12 3.18055e-14 -4.13472e-13 7.38286e-13 1.19271e-14 -2.41722e-13 7.73091 5.47488 0.417314 7.36746e-13 1.3418e-14 -2.3218e-13 2.90554 0.965183 0.102902 7.44579e-13 1.39149e-14 -2.40132e-13 10.2786 0.731801 0.0259123 7.28347e-13 1.70955e-14 -2.38542e-13 2.22167 -0.733487 -0.20892 -4.83669e-17 -9.70628e-19 -1.49089e-16 1.98979e-17 -5.2181e-16 -1.39149e-15 2.74323e-14 5.76476e-15 -2.8625e-14 3.15092e-13 -1.65985e-14 -7.63333e-14 7.45666e-13 -1.73533e-14 -2.44903e-13 1.30244e-12 -2.8625e-14 -4.15858e-13 7.4425e-13 -1.82882e-14 -2.35361e-13 -7.73091 5.47488 -0.417314 7.47082e-13 -1.80894e-14 -2.51264e-13 -2.90554 0.965183 -0.102902 7.42386e-13 -1.74931e-14 -2.40927e-13 -10.2786 0.731801 -0.0259123 7.47033e-13 -1.43125e-14 -2.44903e-13 -2.22167 -0.733487 0.20892 -2.03217e-16 0.0 -3.88251e-19 0.771177 -4.17175 -0.0657012 -0.00265894 2.0054 -0.0183067 -0.462422 2.16694 0.0961805 2.03217e-16 0.0 3.88251e-19 -0.142664 -2.55999 0.026056 0.00715906 -0.914029 0.0621354 0.453181 3.47455 -0.12114
-7.23215 83.8558 123.076 177.83 -2.67 -152.591 -1.88499 -9.18147 -1.18183 1.03938 4.07126 -0.426314 0.119158 2.84808 -0.934935 1.1806 -5.75959 -1.72032 -0.0 0.0 0.0 -0.0 0.0 0.0 3.47193e-14 2.73068e-14 1.30864e-14 22.7544 2.79298 -0.0228616 -4.05774 -1.81259 6.37126 0.00063774 -0.56575 -0.0794974 -6.11363e-10 5.66528e-10 -3.6596e-10 -1.05729e-09 9.79756e-10 -6.32423e-10 -6.11361e-10 5.66527e-10 -3.65975e-10 7.73091 5.47488 0.417314 -6.11362e-10 5.66529e-10 -3.65963e-10 2.90554 0.965183 0.102902 -6.11354e-10 5.66529e-10 -3.65969e-10 10.2786 0.731801 0.0259123 -6.11369e-10 5.66531e-10 -3.65968e-10 2.22167 -0.733487 -0.20892 3.45245e-14 2.73081e-14 1.28333e-14 -20.9103 7.41411 -1.12049 2.89623 -1.13044 -4.70536 -0.000253896 -0.387091 0.0543984 -4.59822e-10 -5.66893e-11 2.12965e-10 -7.93722e-10 -9.74186e-11 3.68041e-10 -4.59824e-10 -5.66902e-11 2.1298e-10 -7.73091 5.47488 -0.417314 -4.59825e-10 -5.66925e-11 2.12961e-10 -2.90554 0.965183 -0.102902 -4.59827e-10 -5.66902e-11 2.1297e-10 -10.2786 0.731801 -0.0259123 -4.59822e-10 -5.6687e-11 2.12968e-10 -2.22167 -0.733487 0.20892 -2.03217e-16 0.0 -3.88251e-19 0.694139 -11.9816 1.63977 0.00194158 4.00891 0.0354937 -0.645793 -1.58117 -0.665862 2.03217e-16 0.0 3.88251e-19 -1.16765 -8.95846 -1.85809 0.00905488 0.566613 0.0499584 0.596336 1.76288 -0.0965208
-7.23842 83.8538 123.07 177.988 -2.6785 -152.626 -4.74788 -18.8744 -2.54769 2.08642 8.38166 -0.904634 0.347365 5.85356 -1.93289 2.04415 -11.8342 -3.60121 -0.0 0.0 0.0 -0.0 0.0 0.0 7.20392e-14 5.58562e-14 2.65812e-14 46.8143 5.75537 -0.0448847 -7.91769 -3.65798 13.136 -0.000409865 -1.17296 -0.164847 -1.27409e-09 1.17179e-09 -7.52399e-10 -2.20339e-09 2.0265e-09 -1.30021e-09 -1.27408e-09 1.17179e-09 -7.52416e-10 7.73091 5.47488 0.417314 -1.27409e-09 1.1718e-09 -7.52401e-10 2.90554 0.965183 0.102902 -1.27408e-09 1.17179e-09 -7.52405e-10 10.2786 0.731801 0.0259123 -1.27409e-09 1.1718e-09 -7.52404e-10 2.22167 -0.733487 -0.20892 7.18422e-14 5.58596e-14 2.63203e-14 -42.6874 15.2596 -2.3711 5.76776 -2.30611 -9.70353 0.000319021 -0.814497 0.114471 -9.50225e-10 -1.20705e-10 4.33108e-10 -1.64025e-09 -2.07469e-10 7.48453e-10 -9.50228e-10 -1.20706e-10 4.33128e-10 -7.73091 5.47488 -0.417314 -9.50232e-10 -1.20711e-10 4.33105e-10 -2.90554 0.965183 -0.102902 -9.50233e-10 -1.20707e-10 4.33115e-10 -10.2786 0.731801 -0.0259123 -9.50225e-10 -1.20703e-10 4.33113e-10 -2.22167 -0.733487 0.20892 -2.03217e-16 0.0 -3.88251e-19 1.15072 -20.2102 3.58913 0.00274112 6.12497 0.0926979 -0.948563 -5.542 -1.47711 2.03217e-16 0.0 3.88251e-19 -2.72439 -15.6967 -3.95637 0.0117371 2.13085 0.0371235 0.7496 -0.0474124 -0.06605
-7.2577 83.8526 123.061 178.049 -2.6664 -152.662 -7.74616 -27.487 -3.97266 3.08534 12.2216 -1.34553 0.638852 8.5351 -2.83274 2.46441 -17.215 -5.37643 -0.0 0.0 0.0 -0.0 0.0 0.0 1.03862e-13 8.19208e-14 3.90604e-14 68.2701 8.37894 -0.0692424 -10.9847 -5.16934 19.1853 -0.00279836 -1.69724 -0.238585 -1.83556e-09 1.69956e-09 -1.09742e-09 -3.17438e-09 2.9392e-09 -1.89644e-09 -1.83556e-09 1.69956e-09 -1.09744e-09 7.73091 5.47488 0.417314 -1.83556e-09 1.69956e-09 -1.09742e-09 2.90554 0.965183 0.102902 -1.83555e-09 1.69956e-09 -1.09743e-09 10.2786 0.731801 0.0259123 -1.83556e-09 1.69956e-09 -1.09743e-09 2.22167 -0.733487 -0.20892 1.0367e-13 8.19262e-14 3.8798e-14 -61.8023 22.2069 -3.60075 8.13714 -3.29996 -14.1373 0.00144379 -1.16127 0.163225 -1.38096e-09 -1.70033e-10 6.39386e-10 -2.38377e-09 -2.92199e-10 1.10495e-09 -1.38096e-09 -1.70034e-10 6.3941e-10 -7.73091 5.47488 -0.417314 -1.38097e-09 -1.70041e-10 6.39385e-10 -2.90554 0.965183 -0.102902 -1.38097e-09 -1.70036e-10 6.39393e-10 -10.2786 0.731801 -0.0259123 -1.38096e-09 -1.70032e-10 6.39392e-10 -2.22167 -0.733487 0.20892 -2.03217e-16 0.0 -3.88251e-19 2.08999 -27.5042 5.57494 -0.000243221 8.01591 0.144221 -1.31435 -9.07104 -2.21679 2.03217e-16 0.0 3.88251e-19 -4.56212 -21.6618 -5.98217 0.014732 3.5279 0.0256615 0.88704 -1.66045 -0.0476113
-7.28447 83.8513 123.049 178.03 -2.67 -152.716 -10.1508 -33.4462 -5.1666 3.82595 14.8883 -1.66688 0.888584 10.4156 -3.46069 2.55565 -20.9225 -6.68109 -0.0 0.0 0.0 -0.0 0.0 0.0 1.21944e-13 1.01774e-13 4.90004e-14 83.2117 10.1554 -0.0989505 -12.9055 -6.10436 23.3769 -0.00497831 -2.0142 -0.283195 -2.14391e-09 2.03356e-09 -1.33891e-09 -3.70761e-09 3.51681e-09 -2.31376e-09 -2.14391e-09 2.03357e-09 -1.33893e-09 7.73091 5.47488 0.417314 -2.14391e-09 2.03357e-09 -1.33891e-09 2.90554 0.965183 0.102902 -2.1439e-09 2.03357e-09 -1.33891e-09 10.2786 0.731801 0.0259123 -2.14391e-09 2.03357e-09 -1.33891e-09 2.22167 -0.733487 -0.20892 1.21774e-13 1.0178e-13 4.87519e-14 -74.944 26.9427 -4.54759 9.64583 -3.92895 -17.1391 0.0020938 -1.30646 0.183643 -1.66252e-09 -1.82643e-10 8.11e-10 -2.86976e-09 -3.13625e-10 1.40168e-09 -1.66252e-09 -1.82644e-10 8.11026e-10 -7.73091 5.47488 -0.417314 -1.66253e-09 -1.82652e-10 8.11e-10 -2.90554 0.965183 -0.102902 -1.66253e-09 -1.82646e-10 8.11007e-10 -10.2786 0.731801 -0.0259123 -1.66252e-09 -1.82643e-10 8.11006e-10 -2.22167 -0.733487 0.20892 -2.03217e-16 0.0 -3.88251e-19 3.09575 -32.5514 7.17952 -0.00464166 9.3441 0.180553 -1.62409 -11.527 -2.749 2.03217e-16 0.0 3.88251e-19 -6.11956 -25.7826 -7.49963 0.0171833 4.50696 0.017615 0.980506 -2.78035 -0.0591188
-7.31522 83.8498 123.037 177.983 -2.6512 -152.75 -11.1944 -35.7225 -5.71885 4.1427 15.9151 -1.80291 0.981379 11.1899 -3.6814 2.57696 -22.3356 -7.15569 -0.0 0.0 0.0 -0.0 0.0 0.0 1.20098e-13 1.08048e-13 5.18587e-14 89.0278 10.7515 -0.135387 -13.5683 -6.40754 24.9218 -0.00543997 -2.04614 -0.287696 -2.07046e-09 2.04024e-09 -1.4441e-09 -3.58045e-09 3.52825e-09 -2.49572e-09 -2.07045e-09 2.04025e-09 -1.44411e-09 7.73091 5.47488 0.417314 -2.07046e-09 2.04024e-09 -1.44409e-09 2.90554 0.965183 0.102902 -2.07045e-09 2.04024e-09 -1.4441e-09 10.2786 0.731801 0.0259123 -2.07046e-09 2.04024e-09 -1.44409e-09 2.22167 -0.733487 -0.20892 1.1998e-13 1.08055e-13 5.16553e-14 -80.0787 28.5854 -4.92751 10.1078 -4.10253 -18.1046 0.00141048 -1.14644 0.161141 -1.72692e-09 -1.1378e-10 9.07717e-10 -2.98096e-09 -1.9434e-10 1.56918e-09 -1.72692e-09 -1.1378e-10 9.07738e-10 -7.73091 5.47488 -0.417314 -1.72693e-09 -1.13788e-10 9.07718e-10 -2.90554 0.965183 -0.102902 -1.72693e-09 -1.13782e-10 9.07722e-10 -10.2786 0.731801 -0.0259123 -1.72692e-09 -1.1378e-10 9.0772e-10 -2.22167 -0.733487 0.20892 -2.03217e-16 0.0 -3.88251e-19 3.56844 -34.5151 7.891 -0.00751476 9.88285 0.19501 -1.75881 -12.4857 -2.97517 2.03217e-16 0.0 3.88251e-19 -6.7871 -27.3789 -8.05798 0.0183493 4.89902 0.0144459 1.0093 -3.20443 -0.124827
